<?xml version="1.0" encoding="UTF-8"?>
<svg width="1078px" height="994px" viewBox="0 0 1078 994" version="1.1" xmlns="http://www.w3.org/2000/svg" xmlns:xlink="http://www.w3.org/1999/xlink">
    <title>4. Searching for a Book</title>
    <g id="spareisle" stroke="none" stroke-width="1" fill="none" fill-rule="evenodd">
        <g id="4.-Searching-for-a-Book">
            <ellipse id="Oval" fill="#FBF8FE" cx="503.5" cy="933.106279" rx="441.5" ry="60"></ellipse>
            <path d="M22.9914585,493.204821 C-63.0740883,273.585078 111.607226,132.834253 231.678409,117.063399 C351.749593,101.292544 517.849426,129.976342 648.190714,251.948444 C704.093416,304.261645 911.843527,288.237465 1004.50915,377.20895 C1127.90029,495.681072 1108.53444,717.094478 849.171318,727.044819 C395.028849,744.467776 109.057005,712.824563 22.9914585,493.204821 Z" id="Path-57" fill="#FBF8FE"></path>
            <ellipse id="Oval" fill="#FBF8FE" transform="translate(751.000000, 160.606279) rotate(7.000000) translate(-751.000000, -160.606279) " cx="751" cy="160.606279" rx="120" ry="69.5"></ellipse>
            <path d="M849.204244,728.040604 C395.12712,745.481641 109.196425,713.805592 23.1432615,493.957953 C20.9238985,488.28795 18.8779477,482.670461 17,477.106279 L1067.47903,477.111688 C1104.63115,590.95568 1046.04649,720.479922 849.204244,728.040604 Z" id="Path" fill="#F9F5FD"></path>
            <g id="Group-4" transform="translate(273.823828, 113.137369)">
                <g id="magnifier" transform="translate(302.176172, 258.684659) scale(-1, 1) rotate(77.000000) translate(-302.176172, -258.684659) translate(97.368696, -4.156456)">
                    <g id="Group-8" transform="translate(182.905333, 212.563401)">
                        <path d="M16.9259594,0 L28.6700995,16.6154182 C26.0298079,18.8089126 23.2852653,20.9178306 20.4375692,22.9344835 C17.5909705,24.9511363 14.6906002,26.8381786 11.7452375,28.6011022 L11.7452375,28.6011022 L0,11.9867825" id="Clip-7"></path>
                        <polygon id="Path-6" fill="#463958" points="20.8900986 42.5002473 5.71514095 19.3350019 21.1027087 7.35631825 42.7835235 34.313043"></polygon>
                        <path d="M16.9259594,0 L0,11.9867825 L11.7452375,28.6011022 C14.6906002,26.8381786 17.5909705,24.9511363 20.4375692,22.9344835 C23.2852653,20.9178306 26.0298079,18.8089126 28.6700995,16.6154182 L16.9259594,0 Z" id="Fill-6" fill="#382E46"></path>
                    </g>
                    <g id="Group-11" transform="translate(199.905167, 239.240112)">
                        <path d="M205.295679,251.774871 C212.010535,260.875072 210.938397,273.032106 202.937413,278.698724 L196.034905,283.586581 C188.033921,289.2532 176.222841,286.218335 169.884386,276.853421 L166.942315,272.511466 L162.483668,265.924393 L159.944335,262.172276 L155.479104,255.575317 L1.83731923,24.607452 C-1.07292742,20.3116299 -0.46168783,14.8086719 3.21562609,12.2054763 L18.5416082,1.35113883 C22.2090458,-1.24546648 27.5960747,0.00890038566 30.6753176,4.18389903 L190.044318,231.09649 L194.771823,237.506723 L197.461496,241.152295 L202.184612,247.552641 L205.295679,251.774871 Z" id="Fill-9" fill="#B5A8C6"></path>
                        <path d="M30.6753176,4.18389903 L190.044318,231.09649 L202.184612,247.552641 L205.295679,251.774871 C212.010535,260.875072 210.938397,273.032106 202.937413,278.698724 L197.339945,282.661752 L12.2825066,5.78255506 L18.5416082,1.35113883 C22.2090458,-1.24546648 27.5960747,0.00890038566 30.6753176,4.18389903 Z" id="Path" fill="#A599B6"></path>
                        <polygon id="Path" fill="#BFCFE8" points="140.131888 160.030631 144.702467 166.537521 111.766859 189.863033 107.360886 183.239713"></polygon>
                        <polygon id="Path" fill="#BFCFE8" points="132.951743 149.805673 137.527809 156.32245 104.850085 179.465628 100.437528 172.831324"></polygon>
                    </g>
                    <path d="M65.2259102,40.1070697 C17.79723,73.6959827 6.51289125,139.643607 40.0707127,187.115131 C73.6274367,234.587755 139.512919,245.882549 186.941599,212.294734 C234.371377,178.705821 245.655715,112.759295 212.098991,65.2866721 C178.54117,17.8140488 112.65459,6.51815662 65.2259102,40.1070697 M196.850923,226.313547 C141.699993,265.370269 65.0865432,252.235664 26.063779,197.034735 C-12.9578879,141.831609 0.164559108,65.1460775 55.3165862,26.0882568 C110.468613,-12.9695639 187.083161,0.165041091 226.104828,55.368167 C265.125397,110.570195 252.00295,187.255726 196.850923,226.313547" id="Fill-34" fill="#D1B0FB"></path>
                    <polygon id="Fill-12" fill="#463958" points="219.229644 289.667421 249.092594 268.518928 243.165655 260.481973 213.629724 281.398705"></polygon>
                    <path d="M63.4361963,37.57505 C14.6127485,72.1514199 2.99590427,140.038809 37.5402686,188.906394 C72.0846329,237.776175 139.909182,249.402684 188.73263,214.826314 C237.55498,180.251043 249.172922,112.363654 214.62746,63.4949705 C180.084193,14.6262874 112.259644,2.99868 63.4361963,37.57505 M198.932759,229.258124 C142.158807,269.463767 63.2924398,255.943625 23.1229155,199.117072 C-17.0466088,142.291617 -3.53788477,63.3499824 53.2349698,23.1443391 C110.008922,-17.0624027 188.877484,-3.54116265 229.045911,53.2842924 C269.215435,110.110846 255.706711,189.051382 198.932759,229.258124" id="Fill-38" fill="#7827E7"></path>
                </g>
                <path d="M519.780402,322.52957 L544.124234,389.042314 C547.338093,397.823288 543.492459,407.621701 535.163925,411.872573 C525.869234,416.616569 515.007013,417.22928 505.237786,413.560633 L486.822507,406.645124 L486.822507,406.645124 L519.780402,322.52957 Z" id="Path-6" fill="#DB75ED"></path>
                <g id="Group-2" transform="translate(315.557898, 431.610396)">
                    <g id="Group" transform="translate(103.559307, 344.482555)">
                        <path d="M7.09303673,60.2940605 C15.1285068,54.3935467 23.1639769,48.493033 31.199447,42.5925192 C34.677872,40.0382823 37.4896657,36.6835454 39.3967888,32.8123121 C41.3064444,28.9359381 42.2996206,24.6725158 42.2996206,20.3512822 L42.2996206,0 L42.2996206,0 L79.4252565,0 L79.4252565,35.2778747 L34.1396304,60.2940605 C16.108568,60.2940605 7.09303673,60.2940605 7.09303673,60.2940605 Z" id="Path-281" fill="#FFBCAD"></path>
                        <path d="M77.3677087,29.778169 L73.4052289,30.0279859 C68.8364808,30.3160254 64.3986545,31.669881 60.4471322,33.9811356 L40.9728716,45.3716756 C32.519638,50.3159916 23.5061153,54.232966 14.1238183,57.0393732 L4.15302221,60.0218106 C1.79776403,60.7263091 0.363291485,63.1050135 0.83924118,65.5168657 C1.32693491,67.9882302 3.49428768,69.76968 6.01331286,69.76968 L34.300208,69.76968 C40.9638669,69.76968 47.3213163,66.9716321 51.8223083,62.0578331 L66.4568251,46.0811167 L66.4568251,46.0811167 L64.7843955,66.1897506 C64.6330659,68.0092792 65.9854082,69.6069754 67.8049367,69.7583051 C67.8960756,69.7658851 67.9874898,69.76968 68.0789434,69.76968 C70.2073963,69.76968 72.0801211,68.3641095 72.674654,66.3203771 L80.8254125,38.3017953 C81.3736307,36.4172718 81.4362262,34.4246923 81.0073742,32.5094748 C80.6308413,30.8279097 79.0875,29.6697437 77.3677087,29.778169 Z" id="Path-280" fill="#0E1730"></path>
                    </g>
                    <g id="Group-Copy" transform="translate(0.000000, 344.482555)">
                        <path d="M7.02851268,60.2940605 C14.9836193,54.3989314 22.938726,48.5038023 30.8938326,42.6086732 C34.355098,40.0437036 37.1485409,36.6837261 39.0384035,32.8123121 C40.9523716,28.8915175 42.5206409,24.8112225 43.7253754,20.6178325 L49.6487487,0 L49.6487487,0 L86.4366595,0 L78.7027396,35.2778747 L33.8290685,60.2940605 C15.9620313,60.2940605 7.02851268,60.2940605 7.02851268,60.2940605 Z" id="Path-281" fill="#FFBCAD"></path>
                        <path d="M76.6381467,29.7798081 L72.7374751,30.0279859 C68.2112219,30.315966 63.8167293,31.6675805 59.9109891,33.9730292 L40.5801342,45.3834898 C32.2174652,50.3197384 23.2918714,54.2330907 13.9953365,57.0393732 L4.14847156,60.0117801 C1.79319104,60.7227528 0.35946487,63.1023449 0.831606757,65.5168657 C1.3146702,67.987239 3.47941241,69.76968 5.99657243,69.76968 L33.8284578,69.76968 C40.5297573,69.76968 46.9195146,66.9400434 51.4234012,61.9779451 L65.8522795,46.0811167 L65.8522795,46.0811167 L64.1923981,66.2220959 C64.0436878,68.0265447 65.3859291,69.609893 67.1903779,69.7586033 C67.2799428,69.7659847 67.3697733,69.76968 67.4596418,69.76968 C69.5676575,69.76968 71.4213175,68.3748777 72.005198,66.3493373 L80.0899313,38.302584 C80.6334664,36.417006 80.6955369,34.425238 80.2704651,32.5094748 C79.8975854,30.8289374 78.356081,29.6705055 76.6381467,29.7798081 Z" id="Path-280" fill="#0E1730"></path>
                    </g>
                    <path d="M185.480466,0 C203.388091,27.6048835 208.476258,57.4276901 200.744967,89.46842 L190.768568,201.236528 C190.256245,206.976207 190.015635,212.736902 190.047543,218.499312 L190.832587,360.271338 L190.832587,360.271338 C184.288956,364.324701 176.551431,366.351382 167.620011,366.351382 C158.688592,366.351382 149.907427,364.324701 141.276516,360.271338 L141.737148,114.726944 L110.452037,232.695774 L89.6115728,360.271338 C81.1641358,363.224302 72.2883112,363.962543 62.984099,362.486061 C53.6798868,361.009579 46.1095418,358.048803 40.2730639,353.603733 L87.6217292,61.8456495 C90.4054994,44.6923156 96.6667341,28.2891907 106.020843,13.6438201 L114.735255,0 L114.735255,0 L185.480466,0 Z" id="Path-279" fill="#57486C"></path>
                    <path d="M141.534945,115.368659 C151.220884,103.224989 157.260547,90.6049611 159.653932,77.5085748 L141.534945,249.455991 L141.534945,115.368659 Z" id="Path-2" fill="#463958"></path>
                    <path d="M51.0300084,355.235864 L84.139234,163.369408 C84.6019164,160.688184 85.1357595,158.019728 85.740198,155.366863 L115.149317,26.2910401 L115.149317,26.2910401" id="Path-3" stroke="#FFFFFF" stroke-width="1.536" opacity="0.200000003"></path>
                    <path d="M150.594438,360.271338 L150.594438,243.647224 C150.594438,240.661708 150.681482,237.676827 150.855459,234.696385 L159.653932,83.9676227 L159.653932,83.9676227" id="Path-4" stroke="#FFFFFF" stroke-width="1.536" opacity="0.200000003"></path>
                </g>
                <path d="M288.410564,323.359881 C286.963269,320.578974 286.167091,317.505441 286.082213,314.371609 L285.704669,300.432087 L285.704669,300.432087 L280.363574,293.31801 C279.731267,292.475808 279.90142,291.280482 280.743622,290.648175 C281.073834,290.400259 281.475596,290.266227 281.888515,290.266227 C284.35263,290.266227 286.737053,291.139265 288.61859,292.730391 L291.715331,295.349157 C295.694013,298.713738 300.211017,301.3841 305.07677,303.248169 L327.761593,311.938723 L327.761593,311.938723 L324.978522,301.630091 C324.572347,300.125601 325.441944,298.572103 326.936784,298.131738 C328.532892,297.661541 330.248487,298.293493 331.158189,299.686723 L334.135811,304.247023 C336.264524,307.507197 337.836075,311.098776 338.786116,314.874696 C339.719958,318.586238 341.776809,321.919007 344.675726,324.417784 C364.42929,341.444751 384.182855,358.471718 403.93642,375.498685 C403.93642,375.498685 396.316295,420.855949 396.316295,420.855949 C396.316295,420.855949 396.316295,420.855949 396.316295,420.855949 C392.578457,420.167538 389.199186,418.193275 386.763969,415.275217 L333.339782,351.258396 C326.282065,342.801317 317.018583,336.465719 306.577859,332.955045 L295.125533,329.104221 C292.228455,328.130083 289.821613,326.071143 288.410564,323.359881 Z" id="Path-5" fill="#FFBCAD"></path>
                <path d="M463.476946,282.459761 L484.617703,284.527307 C495.977144,285.638249 506.445813,291.166295 513.769007,299.920832 C520.956394,308.513019 523.645303,320.003636 521.016741,330.892845 L507.614078,386.41536 C503.465638,403.600886 503.618886,421.544202 508.060252,438.656365 L510.173071,446.796859 L510.173071,446.796859 C492.157156,453.886434 476.700912,458.18007 463.804339,459.677767 C450.907766,461.175464 433.931956,461.175464 412.876907,459.677767 L423.553668,411.078027 C418.868578,415.549872 414.1289,418.74729 409.334634,420.670281 C404.540368,422.593272 398.887894,422.76161 392.377213,421.175296 C389.93851,396.673413 393.693045,375.627928 403.640816,358.038841 L418.359545,306.29437 C420.868293,297.474733 427.239727,290.267709 435.685215,286.6965 C444.451158,282.989785 454.004707,281.533385 463.476946,282.459761 Z" id="Path-17" fill="#E97DFC"></path>
                <path d="M452.214052,350.183864 C459.220364,403.918925 456.81051,440.780912 444.98449,460.769827 C435.278354,460.915573 424.153918,460.550956 411.611057,459.675111 L422.280523,412.000709 C433.596769,400.280327 443.574612,379.674712 452.214052,350.183864 Z" id="Path" fill="#000000" opacity="0.0577385312"></path>
                <g id="Group-52" transform="translate(488.956383, 266.185104) scale(-1, 1) rotate(-4.000000) translate(-488.956383, -266.185104) translate(424.852646, 189.826183)">
                    <path d="M121.182648,39.7558382 C116.984937,39.7558382 113.582236,43.1616916 113.582236,47.3627584 C113.582236,51.5638251 116.984937,54.9696786 121.182648,54.9696786 C125.380359,54.9696786 128.783059,51.5638251 128.783059,47.3627584 C128.783059,43.1616916 125.380359,39.7558382 121.182648,39.7558382 Z M121.182648,40.9070102 C124.744345,40.9070102 127.631887,43.7972279 127.631887,47.3627584 C127.631887,50.9282889 124.744345,53.8185066 121.182648,53.8185066 C117.620951,53.8185066 114.733408,50.9282889 114.733408,47.3627584 C114.733408,43.7972279 117.620951,40.9070102 121.182648,40.9070102 Z" id="Oval" fill="#57486C" fill-rule="nonzero"></path>
                    <path d="M100.456551,0.289650113 C111.822187,1.43233731 130.081765,12.613172 118.864793,40.9030024 C107.647821,69.1928329 92.822425,76.8000303 89.4484126,87.377004 C86.0744003,97.9539777 75.2131063,145.057909 36.6353807,148.63161 C-1.94234491,152.205311 -13.0634436,110.210747 17.8750605,79.685837 C48.8135645,49.1609274 47.5740717,48.8141221 58.4321226,24.5518861 C69.2901734,0.289650113 89.0909137,-0.853037089 100.456551,0.289650113 Z" id="Path-87" fill="#67371E"></path>
                    <path d="M120.986156,34.1258754 L120.747949,43.2825924 C120.663733,46.5199044 121.284781,49.7367874 122.568014,52.710101 L124.548669,57.2993759 C124.89767,58.1080271 124.525049,59.0464892 123.716398,59.3954897 C123.516854,59.4816098 123.301812,59.5260337 123.084477,59.5260337 L120.325349,59.5260337 L120.325349,59.5260337 L119.940359,74.3232449 C119.862194,77.3275342 118.569161,80.1717299 116.356793,82.205764 L116.290392,82.2668132 C114.121736,84.260659 111.233135,85.2828032 108.293092,85.0966925 L108.293092,85.0966925 L108.293092,85.0966925 L108.353181,96.8129988 L84.5262695,99.7317608 L84.6686782,99.0479733 C86.8081783,88.77675 91.5775036,79.236856 98.5124464,71.3639868 C101.838817,67.5857123 103.766644,63.3671989 104.295927,58.7084467 C100.580795,54.504007 99.2275753,50.4395364 100.236267,46.5150348 C101.749305,40.6282824 110.194432,42.8468084 109.619169,47.7068131 L109.619169,50.1829161 C109.619169,50.6895978 109.983993,51.1226808 110.483313,51.2087412 C110.885346,51.2780338 111.267431,51.0082942 111.336724,50.606261 C111.343866,50.564821 111.347457,50.5228468 111.347457,50.4807957 L111.347457,48.0075779 C111.347868,46.890771 111.932389,45.8555298 112.889731,45.2804135 C114.43041,44.3502402 115.826745,43.1083856 117.078738,41.5548496 C118.736192,39.498197 120.038664,37.0218722 120.986156,34.1258754 Z" id="Path-86" fill="#FFBCAD"></path>
                    <path d="M104.295927,58.7084467 C118.438414,136.253953 90.8620891,165.825752 21.5669513,147.423843 L36.0020475,120.034585 L104.295927,58.7084467 Z" id="Path-97" fill="#67371E"></path>
                    <path d="M103.681347,45.1675976 C105.772218,44.4743898 107.332711,45.2368087 108.159728,47.3224658 L108.242657,47.5429382 L107.158358,47.9295792 C106.56045,46.2528014 105.59715,45.7452227 104.043615,46.2602817 C102.268933,46.8486603 102.394877,50.3505987 103.713696,53.4472922 L103.814833,53.6787326 L102.76436,54.1495865 C102.694622,53.9940021 102.627427,53.8374011 102.562884,53.6800712 L102.377331,53.2061827 C101.076625,49.7191841 101.114414,46.0186389 103.681347,45.1675976 Z" id="Path-9" fill="#EB957D" fill-rule="nonzero"></path>
                    <polygon id="Path-10" fill="#57486C" fill-rule="nonzero" points="109.482732 44.3044093 127.804188 47.2515316 127.621364 48.3880934 109.299908 45.4409711"></polygon>
                </g>
                <path d="M403.496739,357.297663 C403.810409,356.843098 404.433186,356.728879 404.887752,357.042549 C405.342317,357.356218 405.456536,357.978996 405.142867,358.433561 C397.084929,370.111013 393.040383,386.304188 393.040383,407.028802 C393.040383,407.581086 392.592667,408.028802 392.040383,408.028802 C391.488098,408.028802 391.040383,407.581086 391.040383,407.028802 C391.040383,385.929384 395.182116,369.3471 403.496739,357.297663 Z" id="Path-27" fill="#DC75EE" fill-rule="nonzero"></path>
                <path d="M451.790204,349.221293 C452.321817,349.370979 452.63143,349.923281 452.481744,350.454894 L452.227118,351.354806 L451.71549,353.136674 L451.200691,354.894601 C451.114627,355.185594 451.028431,355.47559 450.942102,355.764587 L450.42254,357.486605 L449.899798,359.184686 C449.81241,359.465704 449.724888,359.745725 449.637234,360.024749 L449.109716,361.686925 L448.57901,363.325165 L448.045112,364.939472 L447.508018,366.529846 C447.418236,366.792914 447.32832,367.054985 447.238271,367.316058 L446.696377,368.870536 L446.151279,370.401083 C446.060162,370.65418 445.968911,370.90628 445.877527,371.157384 L445.327615,372.652039 C445.235696,372.899154 445.143642,373.145272 445.051455,373.390393 L444.496722,374.849159 C444.403998,375.090292 444.311141,375.330429 444.218149,375.569569 L443.658587,376.992447 L443.095801,378.391402 C443.001735,378.622567 442.907534,378.852736 442.813198,379.081908 L442.24557,380.44498 C442.150696,380.670165 442.055687,380.894354 441.960544,381.117545 L441.388066,382.444737 L440.812349,383.74801 C440.427458,384.608886 440.040406,385.453817 439.651189,386.282804 L439.065738,387.514328 C438.870046,387.92085 438.673811,388.323387 438.477034,388.721938 L437.885076,389.905635 L437.289858,391.06542 C435.598787,394.317604 433.868429,397.281865 432.098423,399.958323 L431.472068,400.891005 C428.750724,404.880843 425.936539,408.197513 423.028223,410.841441 C422.619566,411.212948 421.987118,411.182832 421.61561,410.774174 C421.244103,410.365517 421.274219,409.733069 421.682877,409.361561 C427.863508,403.742798 433.656161,394.885806 439.047229,382.795077 L439.613226,381.510425 C439.801397,381.078227 439.989073,380.642047 440.176253,380.201887 L440.736307,378.869464 C440.922495,378.421343 441.108187,377.96924 441.293383,377.513158 L441.847479,376.132969 C441.93958,375.900947 442.031556,375.66793 442.123408,375.433918 L442.673027,374.017908 L443.219656,372.578017 L443.763292,371.114248 L444.303932,369.626602 C444.393788,369.376671 444.48352,369.125745 444.573127,368.873825 L445.109265,367.350364 L445.642398,365.80303 L446.172523,364.231822 C446.260626,363.967964 446.348604,363.703112 446.436456,363.437265 L446.96206,361.83025 L447.484647,360.199364 L448.004213,358.544608 L448.520754,356.865985 L449.034268,355.163494 L449.544749,353.437138 L450.052195,351.686918 L450.556603,349.912834 C450.706288,349.381221 451.25859,349.071607 451.790204,349.221293 Z" id="Path-28" fill="#DC75EE" fill-rule="nonzero"></path>
                <path d="M286.170398,300.630762 C290.023991,304.815311 294.415928,308.467943 299.230134,311.493476 L299.993764,311.965967 L301.395697,312.819898 L300.796851,313.803046 L299.394919,312.949115 C294.437045,309.929225 289.904922,306.262659 285.917597,302.047037 L285.323599,301.410588 L286.170398,300.630762 Z" id="Path-7" fill="#EB957D" fill-rule="nonzero"></path>
                <path d="M286.21698,311.442831 C288.726671,314.99245 293.067749,318.42033 299.243288,321.711164 L299.827619,322.019278 L299.295074,323.039862 C292.860982,319.682523 288.27117,316.15941 285.528711,312.455213 L285.277018,312.107414 L286.21698,311.442831 Z" id="Path-11" fill="#EB957D" fill-rule="nonzero"></path>
                <path d="M287.743281,320.649053 C289.593178,323.128827 292.934811,325.556493 297.768492,327.911878 L298.273851,328.15528 L297.778988,329.194658 C292.693528,326.773399 289.110561,324.252252 287.0304,321.611045 L286.820572,321.337388 L287.743281,320.649053 Z" id="Path-12" fill="#EB957D" fill-rule="nonzero"></path>
            </g>
            <g id="Group-68" transform="translate(451.000000, 464.000000)">
                <path d="M114.809953,11.8481409 L113.463499,5.00700991 L68.6774503,28.7644221 C65.9269486,32.4005199 61.1309514,34.2185688 54.2894586,34.2185688 L2.01073176,34.2185688 L6.02477334,48.357705 C51.9575869,43.4612297 74.9239937,41.012992 74.9239937,41.012992 C74.9239937,41.012992 88.2193134,31.291375 114.809953,11.8481409 Z" id="Path-177" fill="#ECE9F1"></path>
                <polygon id="Path-178" fill="#ECE9F1" points="109.230952 14.0768984 103.75507 1.58069447 62.4640623 33.0449429 4.17549272 26.6823575 14.2106593 51.7231738 90.6201191 40.6135065"></polygon>
                <polygon id="Path-179" fill="#ECE9F1" points="105.949216 14.6905557 101.122694 0 62.2805767 31.6496151 12.3104951 22.4059586 25.0401318 58.0583417"></polygon>
                <path d="M119.153061,7.44634766 L68.6774503,28.7644221 C66.949058,34.9822984 62.1530608,36.8003473 54.2894586,34.2185688 L0,40.7988443 L29.3494314,96 C47.8848767,95.3793361 63.0760023,92.7390898 74.9228081,88.079261 C78.4269757,89.6902814 82.5936457,88.5809978 87.4228179,84.7514101 C106.946595,78.9774542 120.472322,73.868906 128,69.4257655 L119.153061,7.44634766 Z" id="Path-143" fill="#DBC9F3"></path>
                <path d="M68.6451513,28.8768925 L87.4228179,84.7514101 C82.5936457,88.5809978 78.4269757,89.6902814 74.9228081,88.079261 L74.8039655,88.1258949 L74.8039655,88.1258949 L55.0571162,34.4595462 C62.3826772,36.6508036 66.9036464,34.8194702 68.6200239,28.965546 L68.6451513,28.8768925 Z" id="Path" fill="#D1BBF0"></path>
            </g>
            <g id="Group-84" transform="translate(219.830749, 427.800000)">
                <path d="M34.8685909,0 C35.5313326,0 36.0685909,0.5372583 36.0685909,1.2 C36.0685909,1.82132034 35.5963913,2.33235254 34.991284,2.39380454 L34.8685909,2.4 L2.39925089,2.4 L2.4,34.1980757 C2.4,34.819396 1.92780032,35.3304282 1.32269303,35.3918802 L1.2,35.3980757 C0.578679656,35.3980757 0.0676474571,34.925876 0.00619546472,34.3207687 L0,34.1980757 L0,0 L34.8685909,0 Z M135.50066,0 C134.837918,0 134.30066,0.5372583 134.30066,1.2 C134.30066,1.82132034 134.77286,2.33235254 135.377967,2.39380454 L135.50066,2.4 L167.96966,2.4 L167.969251,34.1980757 C167.969251,34.819396 168.441451,35.3304282 169.046558,35.3918802 L169.169251,35.3980757 C169.790571,35.3980757 170.301603,34.925876 170.363055,34.3207687 L170.369251,34.1980757 L170.369251,0 L135.50066,0 Z M34.8685909,123.4 C35.5313326,123.4 36.0685909,122.862742 36.0685909,122.2 C36.0685909,121.57868 35.5963913,121.067647 34.991284,121.006195 L34.8685909,121 L2.39925089,121.000924 L2.4,89.2019243 C2.4,88.580604 1.92780032,88.0695718 1.32269303,88.0081198 L1.2,88.0019243 C0.578679656,88.0019243 0.0676474571,88.474124 0.00619546472,89.0792313 L0,89.2019243 L0,123.4 L34.8685909,123.4 Z M135.50066,123.4 C134.837918,123.4 134.30066,122.862742 134.30066,122.2 C134.30066,121.57868 134.77286,121.067647 135.377967,121.006195 L135.50066,121 L167.96966,121.000924 L167.969251,89.2019243 C167.969251,88.580604 168.441451,88.0695718 169.046558,88.0081198 L169.169251,88.0019243 C169.790571,88.0019243 170.301603,88.474124 170.363055,89.0792313 L170.369251,89.2019243 L170.369251,123.4 L135.50066,123.4 Z" id="Combined-Shape" fill="#B5A8C6" fill-rule="nonzero"></path>
                <path d="M27.1515116,32.6576927 L35.1426419,32.6576927 C36.2472114,32.6576927 37.1426419,33.5531232 37.1426419,34.6576927 L37.1426419,85.8586763 C37.1426419,86.9632458 36.2472114,87.8586763 35.1426419,87.8586763 L27.1515116,87.8586763 C26.0469421,87.8586763 25.1515116,86.9632458 25.1515116,85.8586763 L25.1515116,34.6576927 C25.1515116,33.5531232 26.0469421,32.6576927 27.1515116,32.6576927 Z M60.7266766,32.6576927 L68.7178069,32.6576927 C69.8223764,32.6576927 70.7178069,33.5531232 70.7178069,34.6576927 L70.7178069,85.8586763 C70.7178069,86.9632458 69.8223764,87.8586763 68.7178069,87.8586763 L60.7266766,87.8586763 C59.6221071,87.8586763 58.7266766,86.9632458 58.7266766,85.8586763 L58.7266766,34.6576927 C58.7266766,33.5531232 59.6221071,32.6576927 60.7266766,32.6576927 Z M40.540868,32.6576927 L45.7355462,32.6576927 C46.287831,32.6576927 46.7355462,33.105408 46.7355462,33.6576927 L46.7355462,86.8586763 C46.7355462,87.410961 46.287831,87.8586763 45.7355462,87.8586763 L40.540868,87.8586763 C39.9885833,87.8586763 39.540868,87.410961 39.540868,86.8586763 L39.540868,33.6576927 C39.540868,33.105408 39.9885833,32.6576927 40.540868,32.6576927 Z M103.894746,32.6576927 L111.885876,32.6576927 C112.990446,32.6576927 113.885876,33.5531232 113.885876,34.6576927 L113.885876,85.8586763 C113.885876,86.9632458 112.990446,87.8586763 111.885876,87.8586763 L103.894746,87.8586763 C102.790176,87.8586763 101.894746,86.9632458 101.894746,85.8586763 L101.894746,34.6576927 C101.894746,33.5531232 102.790176,32.6576927 103.894746,32.6576927 Z M117.284102,32.6576927 L122.47878,32.6576927 C123.031065,32.6576927 123.47878,33.105408 123.47878,33.6576927 L123.47878,86.8586763 C123.47878,87.410961 123.031065,87.8586763 122.47878,87.8586763 L117.284102,87.8586763 C116.731818,87.8586763 116.284102,87.410961 116.284102,86.8586763 L116.284102,33.6576927 C116.284102,33.105408 116.731818,32.6576927 117.284102,32.6576927 Z M127.877007,32.6576927 L135.868137,32.6576927 C136.972706,32.6576927 137.868137,33.5531232 137.868137,34.6576927 L137.868137,85.8586763 C137.868137,86.9632458 136.972706,87.8586763 135.868137,87.8586763 L127.877007,87.8586763 C126.772437,87.8586763 125.877007,86.9632458 125.877007,85.8586763 L125.877007,34.6576927 C125.877007,33.5531232 126.772437,32.6576927 127.877007,32.6576927 Z M141.266363,32.6576927 L146.461041,32.6576927 C147.013326,32.6576927 147.461041,33.105408 147.461041,33.6576927 L147.461041,86.8586763 C147.461041,87.410961 147.013326,87.8586763 146.461041,87.8586763 L141.266363,87.8586763 C140.714078,87.8586763 140.266363,87.410961 140.266363,86.8586763 L140.266363,33.6576927 C140.266363,33.105408 140.714078,32.6576927 141.266363,32.6576927 Z M74.116033,32.6576927 L79.3107112,32.6576927 C79.862996,32.6576927 80.3107112,33.105408 80.3107112,33.6576927 L80.3107112,86.8586763 C80.3107112,87.410961 79.862996,87.8586763 79.3107112,87.8586763 L74.116033,87.8586763 C73.5637483,87.8586763 73.116033,87.410961 73.116033,86.8586763 L73.116033,33.6576927 C73.116033,33.105408 73.5637483,32.6576927 74.116033,32.6576927 Z M90.9036155,32.6576927 L96.0982937,32.6576927 C96.6505785,32.6576927 97.0982937,33.105408 97.0982937,33.6576927 L97.0982937,86.8586763 C97.0982937,87.410961 96.6505785,87.8586763 96.0982937,87.8586763 L90.9036155,87.8586763 C90.3513307,87.8586763 89.9036155,87.410961 89.9036155,86.8586763 L89.9036155,33.6576927 C89.9036155,33.105408 90.3513307,32.6576927 90.9036155,32.6576927 Z M83.7089373,32.6576927 L86.5053894,32.6576927 C87.0576742,32.6576927 87.5053894,33.105408 87.5053894,33.6576927 L87.5053894,86.8586763 C87.5053894,87.410961 87.0576742,87.8586763 86.5053894,87.8586763 L83.7089373,87.8586763 C83.1566525,87.8586763 82.7089373,87.410961 82.7089373,86.8586763 L82.7089373,33.6576927 C82.7089373,33.105408 83.1566525,32.6576927 83.7089373,32.6576927 Z" id="Combined-Shape" fill="#463958"></path>
                <rect id="Rectangle" fill="#E97DFC" x="1.16925089" y="56.6581204" width="167.875825" height="7.20012829" rx="3.60006414"></rect>
            </g>
            <g id="Group-70" transform="translate(482.000000, 0.000000)">
                <path d="M2.73814179,105.603273 L52.6176148,94.118819 C56.7563207,106.594287 60.445037,115.177632 63.6837635,119.868855 L76.6069348,121 L84.0820105,98.8828729 L58.9420625,19.5872452 L47.8672154,21.5763154 L2.73814179,102.553419 L2.73814179,105.603273 Z" id="Path-184" fill="#ECE9F1"></path>
                <path d="M52.3962502,93.3364142 L52.6176148,94.118819 L2.73814179,105.603273 L2.73814179,102.553419 L47.8672154,21.5763154 L48.9145614,21.3884943 C45.0449563,46.7775104 46.1328478,70.4978667 52.1782357,92.5495631 L52.3962502,93.3364142 Z" id="Path" fill="#E1E0E3"></path>
                <path d="M47.7804884,30.0425812 L5.96132461,104.860882 L2.73814179,105.603273 L2.73814179,102.553419 L38.6266105,38.1563454 L48.1722311,26.7161718 C48.0319609,27.8282363 47.90138,28.9370394 47.7804884,30.0425812 Z" id="Path" fill="#ECE9F1"></path>
                <path d="M133,90.3200274 L76.6069348,121 L53.799707,25.108299 C51.4918412,23.3201415 50.3379084,22.4260627 50.3379084,22.4260627 C50.3379084,22.4260627 34.4713195,50.1517996 2.73814179,105.603273 L0,103.199801 L48.0814121,19.5872452 L103.722881,0 L108.991378,4.97253092 L133,90.3200274 Z" id="Path-183" fill="#DBC9F3"></path>
                <polygon id="Path" fill="#D1BBF0" points="103.722881 0 108.797173 4.78900769 53.799707 25.108299 47.8672154 19.9577056 48.0814121 19.5872452"></polygon>
            </g>
            <g id="Group-75" transform="translate(242.000000, 61.000000)">
                <path d="M55.8252914,91 C66.4093684,86.8972658 97.6003226,69.6469085 108.13575,64.6265639 C119.036952,59.4318642 149.038684,57.4807063 151,56.0355373 C150.952251,55.4603456 89.3154084,4.87466615 89.2361269,4.89048022 C70.0617219,7.94403262 13.860165,28.8810987 0.0147364065,39.5706762 C-0.989795925,45.0502754 49.6764725,83.5539643 55.8252914,91" id="Fill-118" fill="#D1BBF0"></path>
                <path d="M104.900525,63.0492805 C89.2577491,60.7287417 73.3717235,77.0408175 58.9127644,86.0326808 C58.9127644,86.0326808 4.38152404,37.6455816 6.05724614,37.3876441 C6.20499798,37.360682 14.1935076,33.120441 16.4242,32.4508819 C25.9082465,29.6243542 31.9723784,21.7981527 41.1023611,18.6602126 C58.9334857,12.5268721 80.5448951,6.38822907 99.9580455,7.65922288 C100.238233,7.67504065 99.9472344,9.59465293 101.031048,11.208425 C115.516134,32.7357816 142.561928,46.9591927 147.092685,54.8276348 C140.870891,54.7224826 120.924392,51.1518006 112.222349,57.0268441 C108.442965,59.5792571 110.890781,61.6095039 108.315935,62.5064434 C107.607807,62.7544948 106.544714,62.9333434 104.900525,63.0492805" id="Fill-119" fill="#DDDAE1"></path>
                <path d="M57.9028265,9.6948621 C28.4830926,4.7955773 39.547363,16.1077098 12.802478,29.5614426 C8.71137371,31.6177528 4.10674165,29.7825319 16.7043879,40.446046 C25.7659002,48.1140697 50.2638761,72.7897917 55.25951,80.8955003 C57.6226385,84.7241198 76.4114473,56.3779561 87.1910252,54.9013312 C94.9984487,53.8363279 95.6489171,56.9423629 105.894246,56.7527294 C106.148307,56.7473369 67.9688711,17.7795403 57.9028265,9.6948621" id="Fill-120" fill="#ECE9F1"></path>
                <path d="M57.9028265,9.6948621 C77.2249834,-11.3210232 98.1183549,8.30262867 103.843739,8.79306943 C121.717207,28.0794254 148.430559,46.3417604 149.249501,52.554729 C149.78375,56.5891592 117.746827,39.116814 105.894246,56.7527294 C105.757305,56.9585401 64.7651787,19.1981966 57.9028265,9.6948621" id="Fill-121" fill="#E6E3EC"></path>
                <path d="M129.702458,34.9402807 C129.758414,35.182677 129.60775,35.4246492 129.36594,35.4807407 C119.967133,37.6609413 111.48408,36.7606546 103.23675,46.6896345 C103.077934,46.8808337 102.794565,46.9067729 102.603829,46.7475715 C102.413092,46.58837 102.387216,46.3043142 102.546032,46.1131151 C108.923714,38.4350089 115.464853,37.0694472 122.470516,35.8662951 L123.222913,35.7377273 C123.474314,35.6948917 123.726322,35.6519832 123.978949,35.6087214 L124.764969,35.4730168 C126.209712,35.2210091 127.674982,34.9481863 129.163306,34.6029462 C129.405116,34.5468547 129.646502,34.6978845 129.702458,34.9402807 Z M124.309601,29.5343402 C124.365557,29.7767364 124.214893,30.0187086 123.973083,30.0748001 C121.421978,30.6665689 118.93834,31.0313874 116.50857,31.4474103 L115.743049,31.5808124 C109.505659,32.6894627 103.617024,34.333408 97.8438926,41.2836939 C97.6850764,41.4748931 97.4017081,41.5008323 97.2109717,41.3416309 C97.0202353,41.1824294 96.9943589,40.8983736 97.153175,40.7071745 C105.517992,30.636752 114.163993,31.4253738 123.770449,29.1970056 C124.012259,29.1409141 124.253645,29.2919439 124.309601,29.5343402 Z M118.917816,25.0341519 C118.971148,25.2771418 118.817877,25.5174631 118.575475,25.5709245 C116.667886,25.9916408 114.7981,26.2776903 112.960426,26.5452472 L112.174801,26.659121 L111.393008,26.7727625 L111.031813,26.8259384 L111.031813,26.8259384 L110.31179,26.9342609 C104.085102,27.8879548 98.2066147,29.2898521 92.4437624,35.8862907 C92.2802427,36.0734633 91.9963175,36.0923161 91.8095979,35.9283996 C91.6228783,35.7644832 91.6040711,35.4798692 91.7675908,35.2926966 C97.5870911,28.6314159 103.542148,27.1324896 109.860946,26.1240782 L110.652706,26.0002436 C113.166052,25.6140504 115.73788,25.274213 118.382343,24.6909802 C118.624745,24.6375188 118.864484,24.791162 118.917816,25.0341519 Z M112.626149,18.7272212 C112.679482,18.9702111 112.52621,19.2105324 112.283808,19.2639938 C110.784988,19.5945566 109.309506,19.8419833 107.854601,20.0626251 L107.06304,20.1806575 C106.799856,20.219342 106.537335,20.2574797 106.275461,20.2954094 L105.491765,20.4089131 L104.711851,20.5232006 C98.2280517,21.4845082 92.1279041,22.7391616 86.1520958,29.57936 C85.988576,29.7665326 85.7046509,29.7853854 85.5179312,29.621469 C85.3312116,29.4575525 85.3124044,29.1729385 85.4759242,28.9857659 C91.5379037,22.0469318 97.7469714,20.7096108 104.36104,19.6933129 L105.156688,19.5725601 C105.289626,19.5525788 105.42273,19.5326415 105.556002,19.5127058 L106.357668,19.3927738 C108.233009,19.1114023 110.142125,18.8138 112.090676,18.3840496 C112.333078,18.3305881 112.572817,18.4842313 112.626149,18.7272212 Z M107.234318,14.2270673 C107.285007,14.4706249 107.129134,14.7092589 106.886166,14.7600713 C97.481379,16.7269108 88.9973299,15.2320753 80.7512976,24.1822704 C80.5829014,24.3650466 80.2985784,24.3763728 80.1162445,24.207568 C79.9339106,24.0387633 79.9226119,23.7537505 80.0910081,23.5709743 C88.457123,14.4904423 97.1021276,15.8858354 106.702604,13.8780711 C106.945572,13.8272587 107.183628,13.9835096 107.234318,14.2270673 Z M100.942651,9.72211677 C100.993341,9.96567439 100.837468,10.2043084 100.5945,10.2551208 C97.9274704,10.8128812 95.3344858,11.0922579 92.7999762,11.4103979 L92.0015304,11.5125216 C85.894736,12.3110205 80.1210859,13.5324098 74.4596309,19.6773199 C74.2912347,19.8600962 74.0069118,19.8714223 73.8245778,19.7026175 C73.6422439,19.5338128 73.6309452,19.2488001 73.7993414,19.0660238 C82.1654563,9.98549177 90.8104609,11.3808849 100.410937,9.3731206 C100.653905,9.32230824 100.891962,9.47855915 100.942651,9.72211677 Z" id="Combined-Shape" fill="#CCC9D1" fill-rule="nonzero" transform="translate(101.697103, 28.107708) rotate(5.000000) translate(-101.697103, -28.107708) "></path>
                <path d="M104.900525,63.0492805 C104.614931,59.7590045 108.310529,58.9995718 109.880843,59.948638 C109.875437,61.9995557 108.548374,62.4165697 108.352873,62.5325068 C107.687088,62.9333434 106.629402,62.8749255 104.900525,63.0492805" id="Fill-122" fill="#D1BBF0"></path>
                <path d="M85.40314,46.0416972 C85.4590958,46.2840935 85.3084315,46.5260656 85.0666219,46.5821572 C75.6678149,48.7623578 66.8449359,54.8085181 58.5976057,64.737498 C58.4387896,64.9286971 58.1554212,64.9546364 57.9646848,64.7954349 C57.7739485,64.6362335 57.748072,64.3521777 57.9068881,64.1609785 C66.2717051,54.0905561 75.2575315,47.9327308 84.8639881,45.7043626 C85.1057977,45.6482711 85.3471842,45.7993009 85.40314,46.0416972 Z M80.0102829,40.6357566 C80.0662386,40.8781529 79.9155743,41.120125 79.6737647,41.1762166 C70.2749578,43.3564172 61.4520788,49.4025775 53.2047486,59.3315574 C53.0459324,59.5227565 52.7625641,59.5486958 52.5718277,59.3894943 C52.3810913,59.2302929 52.3552148,58.9462371 52.514031,58.7550379 C60.878848,48.6846155 69.8646743,42.5267902 79.4711309,40.2984221 C79.7129405,40.2423305 79.9543271,40.3933603 80.0102829,40.6357566 Z M74.618498,36.1355684 C74.67183,36.3785583 74.5185586,36.6188795 74.2761568,36.6723409 C64.8744668,38.7458715 56.0512339,44.4946804 47.8046184,53.9341541 C47.6410987,54.1213268 47.3571735,54.1401796 47.1704539,53.9762631 C46.9837342,53.8123466 46.9649271,53.5277326 47.1284468,53.34056 C55.4939785,43.7649691 64.479451,37.9104524 74.0830245,35.7923967 C74.3254263,35.7389353 74.565166,35.8925785 74.618498,36.1355684 Z M68.3268313,29.8286377 C68.3801633,30.0716276 68.226892,30.3119488 67.9844902,30.3654102 C58.5828002,32.4389408 49.7595673,38.1877497 41.5129518,47.6272235 C41.349432,47.8143961 41.0655068,47.8332489 40.8787872,47.6693324 C40.6920676,47.5054159 40.6732604,47.2208019 40.8367802,47.0336293 C49.2023118,37.4580384 58.1877843,31.6035217 67.7913578,29.485466 C68.0337597,29.4320046 68.2734993,29.5856478 68.3268313,29.8286377 Z M62.9349996,25.3284837 C62.985689,25.5720413 62.8298163,25.8106754 62.5868481,25.8614877 C53.1820608,27.8283272 44.3581859,33.2799388 36.1121536,42.2301338 C35.9437574,42.4129101 35.6594344,42.4242363 35.4771005,42.2554315 C35.2947666,42.0866267 35.2834679,41.801614 35.4518641,41.6188377 C43.817979,32.5383057 52.8028094,26.9872518 62.4032856,24.9794876 C62.6462538,24.9286752 62.8843103,25.0849261 62.9349996,25.3284837 Z M56.643333,20.8235332 C56.6940223,21.0670909 56.5381496,21.3057249 56.2951814,21.3565372 C46.8903941,23.3233767 38.0665192,28.7749883 29.8204869,37.7251833 C29.6520907,37.9079596 29.3677677,37.9192858 29.1854338,37.750481 C29.0030999,37.5816762 28.9918012,37.2966635 29.1601974,37.1138872 C37.5263123,28.0333552 46.5111427,22.4823013 56.111619,20.4745371 C56.3545871,20.4237247 56.5926436,20.5799756 56.643333,20.8235332 Z" id="Combined-Shape" fill="#CCC9D1" fill-rule="nonzero"></path>
            </g>
            <g id="Group-78" transform="translate(48.000000, 389.000000)">
                <path d="M132.930582,36.0584351 C134.036605,32.6203302 122.558459,28.9786533 112.539398,25.5393578 C87.4130889,16.8964763 77.1946801,12.3226538 70.6498067,11.4238418 C65.9531095,11.5393183 63.34837,13.2988471 52.9366173,17.8726695 C43.6645131,21.9810144 2.837713,36.9191519 0,39.3048729 C6.50524389,44.0382196 64.0556967,69.3359101 64.1001298,69.3359101 C68.6371081,67.8882869 70.1742526,64.9978026 78.932374,62.5299385 C81.6536003,61.7513648 131.669643,40.0834465 132.930582,36.0584351" id="Fill-107" fill="#CCBBE2"></path>
                <path d="M61.6551092,52.8727683 C69.5437832,55.6477762 68.0450672,71.6442499 63.1105929,68.4751933 C47.7307409,58.6204036 19.3295931,49.197758 6.70459232,41.2953547 C6.35032853,41.0655921 11.2415706,37.6596301 7.25820455,31.1715166 C19.091816,34.1822394 50.2538196,51.1120491 60.748434,52.7572918 C61.1411264,52.834673 60.9033494,52.6370534 61.6551092,52.8727683" id="Fill-108" fill="#ECE9F1"></path>
                <path d="M130.961115,23.6203048 C135.890786,25.7750728 136.443197,35.3560522 131.868991,39.3048729 C122.004846,47.827516 64.2166165,69.1823382 64.1001298,69.3359101 C65.1629211,69.3359101 67.0927581,61.0882677 62.2855786,56.6287313 C61.2179837,55.6477762 79.8006205,46.7739416 81.7316584,45.7929864 C88.0051297,42.5513106 127.094236,24.4810215 130.961115,23.6203048" id="Fill-109" fill="#CCBBE2"></path>
                <path d="M130.961115,23.6203048 C127.962482,20.4941055 120.865198,16.5452848 111.11754,13.1012275 C86.6601282,4.42025058 81.1780462,0.900002541 74.8265168,0 C67.3749682,0.197619606 7.48997713,27.1024575 3.27003491,30.738182 C9.58193483,35.4715287 62.2411455,56.6287313 62.2855786,56.6287313 C66.7000657,55.1811082 69.8596183,52.5596722 78.4171904,50.0977605 C81.0615595,49.3132345 129.738605,27.6512686 130.961115,23.6203048" id="Fill-110" fill="#DBC9F3"></path>
                <path d="M60.3989738,63.747799 C57.9875783,62.7216057 52.2509067,60.1501698 46.7904407,58.2906408 C34.631387,65.8144716 35.8923259,65.5513756 31.8369062,76.0323575 C30.0944087,80.5347512 28.5680721,82.0264221 25.187555,82.8764245 C28.3302951,84.2145235 31.0575258,82.2895181 32.418139,82.2288036 C33.3416266,82.1907083 33.0317959,82.7990433 29.9671139,85.9359569 C36.6885187,86.5228634 40.9324788,82.9692819 41.839154,79.6407011 C43.5648389,73.3121118 44.5663847,71.2716298 47.5926381,69.1275761 C52.85976,65.4037561 60.3557416,64.6299444 60.3989738,63.747799" id="Fill-113" fill="#CCBBE2"></path>
                <path d="M78.7654497,8.84050115 C97.0106353,12.9869414 100.56288,25.3643573 94.211351,31.9012806 C87.5067586,38.8108239 70.0529623,39.5405878 59.0827938,30.1405613 C49.5621046,21.975062 54.1867481,3.26310445 78.7654497,8.84050115" id="Fill-114" fill="#FBF8FE" opacity="0.525615147"></path>
            </g>
            <g id="Group-79" transform="translate(854.000000, 368.000000)">
                <polyline id="Fill-80" fill="#D1BBF0" points="0 42.8452894 62.7672489 95.3718164 100.110768 53.8382834 35.690029 0 0 42.8452894"></polyline>
                <polyline id="Fill-81" fill="#DBC9F3" points="7.40051497 41.7621233 68.6569229 93.1830645 106 51.6499712 43.2345177 0.636096382 7.40051497 41.7621233"></polyline>
                <polyline id="Fill-83" fill="#ECE9F1" points="1.01090761 43.0272825 37.4124142 0.653680248 43.2345177 0.636096382 7.40051497 41.7621233 1.01090761 43.0272825"></polyline>
                <polyline id="Fill-85" fill="#D1BBF0" points="7.40051497 41.7621233 68.6569229 93.1830645 63.419547 96 0 42.8452894 7.40051497 41.7621233"></polyline>
                <polyline id="Fill-89" fill="#FFFFFE" points="44.2626492 12.4278375 20.9605443 40.5440009 28.0099577 46.5374619 51.1649973 18.7140698 44.2626492 12.4278375"></polyline>
            </g>
            <g id="Group-81" transform="translate(126.000000, 175.000000)">
                <path d="M142,72.2205662 C141.114088,73.4107049 98.8820187,148 98.8820187,148 L12.0658507,75.8782377 L48.4882243,1.71110504 L142,72.2205662" id="Fill-91" fill="#D1BBF0"></path>
                <path d="M127.401881,73.3792673 C126.515969,74.569406 86.0493544,145.634479 86.0493544,145.634479 C91.2909459,141.150447 95.1332936,143.770677 96.5618342,144.579715 L139.318063,70.3336671 L127.401881,73.3792673" id="Fill-92" fill="#ECE9F1"></path>
                <polyline id="Fill-94" fill="#D1BBF0" points="36.4223736 3.29838433 46.2393714 0 142 72.2205662 128.680753 74.3564 36.4223736 3.29838433"></polyline>
                <path d="M120.095497,64.9193381 C120.413305,64.7063322 126.343373,62.1464112 126.343373,62.1464112 L52.9579071,7.42120436 L47.9806242,10.1947728 L120.095497,64.9193381" id="Fill-95" fill="#FFFFFE" opacity="0.571892148"></path>
                <path d="M128.680753,74.3564 C127.794841,75.5465387 85.2564283,147.46941 85.2564283,147.46941 L0,77.465517 L36.4223736,3.29838433 L128.680753,74.3564" id="Fill-97" fill="#DBC9F3"></path>
                <path d="M52.3044665,29.6515394 C48.9180063,36.5469272 40.1503666,38.6513776 34.0429254,34.0354611 C33.8825231,33.9142313 33.6513775,33.9692196 33.5627486,34.1496925 L18.3054502,65.2177654 C18.2399784,65.351084 18.2748478,65.5119286 18.3896512,65.6061654 C22.8050971,69.2306015 24.1458088,75.4496926 21.6198171,80.5933311 C21.5543461,80.7266487 21.5892147,80.8874919 21.7040164,80.9817289 L27.3562859,85.6349116 L29.8923243,87.7409793 L32.3844768,89.8309684 L36.0340921,92.9335815 L39.8940393,96.2569147 L52.6102298,107.300382 L54.3556349,108.80633 C54.6431383,109.053603 54.9291427,109.299179 55.2139473,109.543302 L56.9107729,110.992547 L58.5931742,112.418602 L60.2755208,113.833155 L61.9721824,115.247894 L63.6975285,116.674508 L65.4659288,118.124685 L67.2917529,119.610115 L69.1893704,121.142485 C69.5124211,121.402441 69.8390619,121.66484 70.1695922,121.929926 C70.3230898,122.053031 70.550277,122.009752 70.6477633,121.838834 C74.3703793,115.312174 82.9845211,113.657307 88.8304474,118.344774 C88.9839452,118.467853 89.2111082,118.424569 89.3085902,118.253667 L108.00377,85.4700723 C108.08352,85.3303433 108.047127,85.1531276 107.918764,85.0561372 C102.983982,81.3274503 101.585918,74.4748761 104.66137,69.0872378 C104.741131,68.9475104 104.704745,68.7702876 104.576381,68.6732907 L52.7846167,29.5372966 C52.6242152,29.4160905 52.3930928,29.4710818 52.3044665,29.6515394 Z M52.703,30.277 L103.969,69.016 L103.94512,69.0594041 C101.025915,74.4863068 102.330563,81.2271994 107.017826,85.1566918 L107.31,85.393 L88.934,117.616 L88.7256669,117.460017 C82.7615137,113.133089 74.3839952,114.742485 70.420586,120.976141 L70.282,121.199 L69.5907631,120.644004 L67.6950833,119.1132 L65.8711706,117.629328 C65.5723676,117.385277 65.2759562,117.142695 64.9816371,116.901339 L63.238436,115.46595 L61.531083,114.048276 L59.8452105,112.636628 C59.5652236,112.401206 59.2855331,112.165549 59.0058396,111.929412 L57.3252486,110.50489 L55.6302191,109.057177 L53.9063834,107.574585 L52.2489565,106.140586 L40.8981338,96.2792849 L37.1844547,93.0768301 L34.6861751,90.9416992 L32.7970657,89.3416992 L29.5122817,86.5915122 L24.0005834,82.0398337 L22.303,80.646 L22.3351713,80.5792566 C24.7531161,75.3275854 23.4086196,69.0909516 19.0458807,65.3221507 L18.989,65.275 L33.969,34.774 L34.1569377,34.905871 C40.3869904,39.1725517 48.9426792,37.1190069 52.5937812,30.4818276 L52.703,30.277 Z" id="Stroke-99" fill="#FFFFFE" fill-rule="nonzero"></path>
            </g>
            <g id="Group-80" transform="translate(678.000000, 112.000000)">
                <polyline id="Fill-66" fill="#DBC9F3" points="38.117 15.109 137.452 52.44 101.558 171.174 0 135.127 38.117 15.109"></polyline>
                <path d="M137.452,52.44 L101.558,171.174 C119.024,180.053 125.844,167.177 125.844,167.177 L164.387,48.046 C164.387,48.046 156.926,64.068 137.452,52.44" id="Fill-72" fill="#D1BBF0"></path>
                <path d="M171.679,13.069 C164.334,21.287 156.679,31.844 153.466,42.799 L164.431,47.999 L202.828,7.968 L208.511,2.081 C195.216,-1.326 180.825,2.834 171.679,13.069" id="Fill-73" fill="#ECE9F1"></path>
                <polyline id="Fill-74" fill="#DBC9F3" points="202.828 7.968 164.431 47.999 164.387 48.046 125.844 167.177 177.347 115.636 210.437 0 202.828 7.968"></polyline>
                <path d="M152.678,42.322 C146.628,38.692 106.154,15.213 60.208,8.099 C52.839,6.957 45.483,10.238 41.468,16.522 L137.452,52.44 C138.586,50.745 139.662,49.281 140.672,48.015 C143.733,44.18 148.214,42.28 152.678,42.322" id="Fill-76" fill="#ECE9F1"></path>
                <path d="M164.173,47.781 C161.188,44.172 156.941,42.363 152.678,42.322 C148.214,42.28 143.733,44.18 140.672,48.015 C139.662,49.281 138.586,50.745 137.452,52.44 C156.926,64.068 164.387,48.046 164.387,48.046 C164.387,48.046 164.314,47.95 164.173,47.781" id="Fill-77" fill="#D1BBF0"></path>
            </g>
            <g id="Group-37" transform="translate(397.000000, 200.000000)">
                <polygon id="Path-65" fill="#005753" points="118.422054 118.551343 118.852447 122.252864 27.4200041 137.797306 26.6454969 137.194316 27.2743934 135.479467"></polygon>
                <polygon id="Path-64" fill="#F8F5FD" points="26.3434087 137.477414 24.8659251 127.401648 29.0619296 115.845815 126.310234 104.134984 117.389944 122.03129"></polygon>
                <path d="M126.310234,104.134984 L123.899738,108.97924 C118.056529,110.776175 110.390888,112.609426 102.069382,114.521345 L100.060225,114.981737 L100.060225,114.981737 L97.007106,115.678275 L97.007106,115.678275 L92.8815807,116.618779 C92.5358789,116.69774 92.1897997,116.776853 91.8434177,116.856118 L89.7620897,117.333566 C67.8825377,122.366502 45.3938856,128.028101 40.9646798,134.996101 L26.3434087,137.477414 L24.8659251,127.401648 L29.0619296,115.845815 L126.310234,104.134984 Z" id="Path" fill="#ECE9F1"></path>
                <path d="M117.969158,120.868551 L117.873303,121.060994 L25.9478575,134.779913 L25.9222135,134.605781 L117.969158,120.868551 Z M119.107047,118.585997 L119.011191,118.77844 L25.6447271,132.712338 L25.6190831,132.538206 L119.107047,118.585997 Z M120.396324,115.999372 L120.300468,116.191815 L25.3010968,130.369569 L25.2756296,130.195261 L120.396324,115.999372 Z M121.47249,113.840242 L121.376634,114.032685 L25.0144139,128.413798 L24.9889467,128.23949 L121.47249,113.840242 Z M123.183921,110.406726 L123.088065,110.599169 L25.6891178,125.134871 L25.7573841,124.946477 L123.183921,110.406726 Z" id="Shape" fill="#B6B1BC"></path>
                <path d="M31.959845,121.91817 L26.6454969,136.920812 C25.8737512,129.915324 25.4878784,126.41258 25.4878784,126.41258 C25.4878784,126.41258 27.6452006,124.914443 31.959845,121.91817 Z" id="Path-66" fill="#00BEB6"></path>
                <path d="M96.3569628,0.553867874 L128.76075,104.933849 C128.876025,105.305176 128.668453,105.699645 128.297126,105.81492 C128.266618,105.824391 128.2355,105.831775 128.203988,105.83702 L33.9560084,121.523899 C33.7892372,121.551746 33.6340494,121.627111 33.5089279,121.740833 C30.936667,124.082156 29.1381782,126.692485 28.1134615,129.571821 C27.1879471,132.17241 26.9171244,134.537568 27.3009935,136.667296 C27.3866909,137.142011 27.8385691,137.459279 28.3141549,137.378554 L117.598221,122.467837 L117.598221,122.467837 L118.554846,119.724773 L119.621853,120.914007 C119.998517,121.333819 120.206845,121.877963 120.206845,122.441982 L120.206845,123.064631 C120.206845,123.927198 119.578372,124.661144 118.726082,124.7939 L26.8013289,139.11249 C26.0719665,139.226099 25.3786815,138.757142 25.2126883,138.03789 L0.319929938,30.1771743 C0.10707449,29.2524721 0.0932509232,28.2930635 0.279714513,27.3626803 C1.28035521,22.3652685 2.19988856,18.9918778 3.03831456,17.2425082 C3.85750881,15.5332655 5.56341251,13.2810511 8.15602567,10.485865 C8.76096704,9.83407634 9.58052018,9.42203641 10.4645114,9.32538243 L95.6084782,0.0627209326 C95.9433436,0.0262915181 96.2570952,0.232171727 96.3569628,0.553867874 Z" id="Path-60" fill="#00C7BE"></path>
                <path d="M14.376076,8.89969281 L40.8980411,120.368241 L33.9581896,121.523536 C33.7899729,121.55159 33.633499,121.627486 33.5076005,121.742041 C30.9360483,124.083054 29.1380019,126.69298 28.1134615,129.571821 C27.1882596,132.171532 26.9173074,134.535971 27.3006048,136.665138 C27.3861031,137.140059 27.8396556,137.457977 28.3175922,137.377979 L29.4859064,137.182799 L26.3662959,139.110553 C25.8117097,139.021818 25.3441506,138.607519 25.2120179,138.034986 L0.319346124,30.1746446 C0.106638383,29.2529718 0.0926974762,28.2968761 0.278363329,27.3694291 L0.37296759,26.9005014 L0.37296759,26.9005014 L0.467086117,26.4412995 L0.467086117,26.4412995 L0.529561951,26.1405683 L0.529561951,26.1405683 L0.653865974,25.5520735 L0.653865974,25.5520735 L0.746527303,25.1220493 L0.746527303,25.1220493 L0.838702899,24.701751 L0.838702899,24.701751 L0.960848108,24.1564825 L0.960848108,24.1564825 L1.05189033,23.7588779 L1.05189033,23.7588779 L1.14244681,23.3709992 L1.14244681,23.3709992 L1.23251757,22.9928464 L1.23251757,22.9928464 L1.29229488,22.7461478 L1.29229488,22.7461478 L1.38155608,22.3842048 L1.38155608,22.3842048 L1.47033154,22.0319877 L1.47033154,22.0319877 L1.55862128,21.6894965 L1.55862128,21.6894965 L1.61721125,21.4665722 L1.61721125,21.4665722 L1.67558533,21.2479706 L1.67558533,21.2479706 L1.76274169,20.9281731 L1.76274169,20.9281731 L1.84941231,20.6181015 L1.84941231,20.6181015 L1.90692287,20.4167904 L1.90692287,20.4167904 L1.96421755,20.2198018 L1.96421755,20.2198018 L2.02129635,20.0271359 L2.02129635,20.0271359 L2.10650978,19.746242 L2.10650978,19.746242 L2.19123747,19.4750739 L2.19123747,19.4750739 L2.27547942,19.2136317 L2.27547942,19.2136317 L2.33137088,19.0447401 L2.33137088,19.0447401 L2.38704645,18.8801712 L2.38704645,18.8801712 L2.47015503,18.6414227 L2.47015503,18.6414227 L2.55277787,18.4124002 L2.55277787,18.4124002 L2.60758992,18.2651217 L2.60758992,18.2651217 L2.66218608,18.1221659 L2.66218608,18.1221659 L2.71656637,17.9835326 L2.71656637,17.9835326 L2.79773202,17.7836877 L2.79773202,17.7836877 L2.8515726,17.655861 L2.8515726,17.655861 L2.90519729,17.5323569 C2.91411675,17.5121331 2.92302722,17.4920894 2.93192869,17.4722259 L2.98522957,17.3552057 L2.98522957,17.3552057 L3.03831456,17.2425082 L3.03831456,17.2425082 C3.22159422,16.8600965 3.44925888,16.450506 3.72130851,16.0137365 L3.83249557,15.8375792 L3.83249557,15.8375792 L3.94841702,15.6585228 L3.94841702,15.6585228 L4.06907288,15.4765673 C4.11008056,15.4154322 4.15187731,15.3538141 4.19446313,15.2917127 L4.32458778,15.103959 C4.3908337,15.0093574 4.45885503,14.9136687 4.52865175,14.8168927 L4.6706124,14.6218914 L4.6706124,14.6218914 L4.81730744,14.4239909 L4.81730744,14.4239909 L4.96873689,14.2231914 L4.96873689,14.2231914 L5.12490073,14.0194928 L5.12490073,14.0194928 L5.28579897,13.8128951 L5.28579897,13.8128951 L5.45143161,13.6033983 L5.45143161,13.6033983 L5.62179865,13.3910024 C5.65058769,13.3553615 5.679574,13.3195998 5.70875757,13.2837173 L5.88622621,13.0669728 L5.88622621,13.0669728 L6.06842924,12.8473293 L6.06842924,12.8473293 L6.25536668,12.6247866 L6.25536668,12.6247866 L6.44703851,12.3993449 L6.44703851,12.3993449 L6.64344474,12.1710041 L6.64344474,12.1710041 L6.84458537,11.9397641 C6.87850335,11.9009826 6.91261858,11.8620802 6.94693109,11.823057 L7.15517332,11.5874685 L7.15517332,11.5874685 L7.36814995,11.3489809 C7.40404058,11.3089914 7.44012849,11.268881 7.47641366,11.2286499 L7.69649189,10.9858137 C7.73356612,10.9450994 7.77083763,10.9042643 7.8083064,10.8633084 L8.03548622,10.6161235 C8.07374406,10.5746845 8.11219916,10.5331246 8.15085153,10.491444 C8.75897752,9.83581565 9.58473022,9.42120112 10.4758047,9.32415385 L14.376076,8.89969281 Z" id="Path" fill="#065B57" opacity="0.0801231748"></path>
                <path d="M128.471924,104.003714 L128.761042,104.93479 C128.876407,105.306407 128.667327,105.700768 128.294049,105.81562 C128.263828,105.824918 128.233014,105.832189 128.201815,105.837381 L33.9581896,121.523536 C33.7899729,121.55159 33.633499,121.627486 33.5076005,121.742041 C30.9360483,124.083054 29.1380019,126.69298 28.1134615,129.571821 C27.1882596,132.171532 26.9173074,134.535971 27.3006048,136.665138 C27.3861031,137.140059 27.8396556,137.457977 28.3175922,137.377979 L117.598221,122.467837 L118.554846,119.724773 L119.622408,120.914625 C119.998797,121.334131 120.206845,121.876927 120.206845,122.439418 L120.206845,123.064631 C120.206845,123.92734 119.575772,124.661549 118.719622,124.794906 L26.8096406,139.111195 C26.4246419,139.171164 26.0495869,139.07028 25.7560175,138.856734 C25.2058323,135.478735 25.5023268,132.406949 26.6454969,129.641306 C27.9015517,126.602565 29.6261611,123.90006 31.8193251,121.533793 C32.7276583,120.553812 33.9301361,119.894207 35.245674,119.652802 L35.3398309,119.636271 L128.471924,104.003714 Z" id="Path" fill="#00C7BE"></path>
                <path d="M53.1053908,126.149898 L58.4132232,125.487881 C58.7440733,126.349279 58.8585459,127.31194 58.756641,128.375863 C58.6037837,129.971748 57.362414,132.31733 61.3076952,139.314067 L57.6934333,137.797306 L56.8388717,142 C54.750913,137.391995 53.7069336,134.323899 53.7069336,132.795714 C53.7069336,131.473599 53.7069336,129.821071 53.7069336,127.838131 C53.7069334,127.222885 53.4944396,126.62652 53.1053908,126.149898 L53.1053908,126.149898 L53.1053908,126.149898 Z" id="Path-67" fill="#7827E7"></path>
                <path d="M84.9964479,19.4893771 C85.4363303,19.4479611 85.8264998,19.7709819 85.8679158,20.2108643 C85.906146,20.6169096 85.6338501,20.9805959 85.2457528,21.0667198 L85.1464287,21.0823322 L39.489658,25.3810316 C39.0497756,25.4224476 38.6596062,25.0994268 38.6181901,24.6595444 C38.5799599,24.2534991 38.8522558,23.8898128 39.2403531,23.8036888 L39.3396773,23.7880765 L84.9964479,19.4893771 Z" id="Path-68" fill="#FFFFFF" fill-rule="nonzero"></path>
                <path d="M87.4001747,28.3142359 C87.840057,28.2728198 88.2302265,28.5958406 88.2716425,29.035723 C88.3098727,29.4417683 88.0375768,29.8054547 87.6494795,29.8915786 L87.5501554,29.9071909 L41.8933847,34.2058903 C41.4535023,34.2473064 41.0633329,33.9242855 41.0219168,33.4844032 C40.9836867,33.0783579 41.2559825,32.7146715 41.6440798,32.6285476 L41.743404,32.6129353 L87.4001747,28.3142359 Z" id="Path-68-Copy" fill="#FFFFFF" fill-rule="nonzero"></path>
                <path d="M78.1649598,38.2349301 C78.6048422,38.1935141 78.9950117,38.5165349 79.0364277,38.9564173 C79.0746579,39.3624626 78.802362,39.7261489 78.4142647,39.8122729 L78.3149405,39.8278852 L44.2971114,43.0307491 C43.857229,43.0721651 43.4670596,42.7491443 43.4256435,42.3092619 C43.3874134,41.9032166 43.6597092,41.5395303 44.0478065,41.4534064 L44.1471307,41.437794 L78.1649598,38.2349301 Z" id="Path-68-Copy-2" fill="#FFFFFF" fill-rule="nonzero"></path>
            </g>
            <g id="Group-9" transform="translate(256.000000, 822.606279) scale(-1, 1) translate(-256.000000, -822.606279) translate(123.000000, 686.106279)">
                <path d="M87.1644102,216.095497 L91.8266037,253.219082 C93.2460057,264.521335 102.85607,273 114.247103,273 L123.460931,273 C134.891513,273 144.521888,264.464013 145.894123,253.116097 L150.300776,216.674575 L150.300776,216.674575 L87.1644102,216.095497 Z" id="Path-117" fill="#9F93AF" fill-rule="nonzero"></path>
                <path d="M147.390738,240.736995 L147.128562,242.907153 C127.279157,246.990472 108.421432,247.077445 90.5637751,243.16347 L90.2899797,240.980616 C108.271452,245.037695 127.302026,244.958141 147.390738,240.736995 Z M148.259548,233.551997 L147.996399,235.726213 C127.492737,240.058054 108.044003,240.138212 89.6594025,235.961638 L89.3843955,233.772588 C107.890698,238.099645 127.512446,238.027927 148.259548,233.551997 Z" id="Shape" fill="#FFFFFF" fill-rule="nonzero"></path>
                <ellipse id="Oval" fill="#000000" cx="119.0931" cy="216.674575" rx="34.1209372" ry="3.47083085"></ellipse>
                <path d="M119.0931,212.262219 L117.319593,212.266829 L115.563113,212.280562 C115.271933,212.283603 114.981575,212.287017 114.692093,212.290803 L112.96617,212.31794 L111.263965,212.353828 L109.588154,212.398317 C109.311201,212.406441 109.035459,212.414917 108.760984,212.423741 L107.129784,212.480856 L105.531672,212.5462 C105.268226,212.557769 105.00627,212.569674 104.74586,212.581913 L103.202397,212.659325 C102.948394,212.672886 102.696048,212.686774 102.445415,212.700987 L100.962625,212.790132 L99.5236291,212.886913 L98.1311045,212.991181 L96.787728,213.102788 L95.4961767,213.221586 L94.4602605,213.32591 L92.8996508,213.497856 L91.8139576,213.630769 L91.1303526,213.721775 L90.1649993,213.862569 L89.5613317,213.95969 L88.9894771,214.059737 L88.449343,214.162985 L87.9408369,214.269711 L87.4638662,214.380189 C85.1576971,214.942414 84.0306369,215.655645 84.0306369,216.674575 C84.0306369,217.42179 84.6367448,218.004608 85.8694871,218.484033 L86.2212414,218.612268 C86.5273427,218.717071 86.8659078,218.816819 87.2371777,218.91223 L87.6984154,219.024686 C87.7779099,219.043097 87.8587164,219.061346 87.9408369,219.079439 L88.449343,219.186165 L88.9894771,219.289414 L89.5613317,219.389461 L90.1649993,219.486581 L90.8005725,219.581049 L91.4681438,219.673141 L92.1678057,219.763131 L92.8996508,219.851294 L94.4602605,220.02324 L95.4961767,220.127564 L96.787728,220.246362 C97.0073797,220.265566 97.2291908,220.284471 97.4531054,220.303074 L98.8213906,220.41103 C99.0534966,220.428409 99.2875947,220.445479 99.5236291,220.462238 L100.962625,220.559018 L102.445415,220.648163 L103.969323,220.729523 C104.226586,220.742426 104.48545,220.754999 104.74586,220.767237 L106.326425,220.836642 C106.592796,220.847534 106.860601,220.858085 107.129784,220.868295 L108.760984,220.925409 L110.422593,220.974144 L112.111936,221.014351 C112.395655,221.020333 112.680418,221.025954 112.96617,221.03121 L114.692093,221.058348 L116.439057,221.076586 C116.731823,221.078875 117.025353,221.080788 117.319593,221.082321 L119.0931,221.086931 L120.866606,221.082321 L122.623087,221.068588 C122.914266,221.065548 123.204624,221.062133 123.494106,221.058348 L125.220029,221.03121 L126.922234,220.995323 C127.20381,220.98862 127.484286,220.98156 127.763606,220.974144 L129.425216,220.925409 L131.056415,220.868295 L132.654527,220.80295 C132.917973,220.791381 133.179929,220.779476 133.440339,220.767237 L134.983802,220.689826 C135.237806,220.676265 135.490151,220.662376 135.740784,220.648163 L137.223574,220.559018 L138.66257,220.462238 C138.898605,220.445479 139.132703,220.428409 139.364809,220.41103 L140.733094,220.303074 C140.957008,220.284471 141.17882,220.265566 141.398471,220.246362 L142.690023,220.127564 L143.725939,220.02324 L145.286548,219.851294 L146.018394,219.763131 L146.718055,219.673141 L147.385627,219.581049 L148.0212,219.486581 L148.624868,219.389461 L149.196722,219.289414 L149.736856,219.186165 C149.82424,219.168674 149.910307,219.151039 149.995057,219.133254 L150.487784,219.024686 L150.949022,218.91223 L151.378863,218.795609 C151.585949,218.736212 151.781297,218.67515 151.964958,218.612268 L152.316712,218.484033 C153.549454,218.004608 154.155562,217.42179 154.155562,216.674575 C154.155562,215.757538 153.242644,215.088117 151.378863,214.553541 L150.949022,214.43692 L150.487784,214.324464 L149.995057,214.215896 L149.470748,214.110944 L148.914766,214.00933 L148.327016,213.910781 L147.707407,213.815021 L147.055847,213.721775 L146.372242,213.630769 L145.286548,213.497856 L143.725939,213.32591 L142.690023,213.221586 L141.398471,213.102788 L140.055095,212.991181 L138.66257,212.886913 L137.223574,212.790132 L135.740784,212.700987 L134.216876,212.619627 C133.959614,212.606724 133.700749,212.594152 133.440339,212.581913 L131.859774,212.512508 C131.593404,212.501617 131.325599,212.491065 131.056415,212.480856 L129.425216,212.423741 L127.763606,212.375006 C127.484286,212.36759 127.20381,212.36053 126.922234,212.353828 L125.220029,212.31794 L123.494106,212.290803 L121.747142,212.272565 C121.454376,212.270275 121.160846,212.268362 120.866606,212.266829 L119.0931,212.262219 Z M119.0931,214.14527 L120.855024,214.149847 L122.599855,214.163476 C122.889087,214.166493 123.177494,214.169882 123.465022,214.173638 L125.17918,214.200563 L126.869536,214.236162 L128.533406,214.280285 L130.168106,214.33278 L131.770952,214.393495 C132.035289,214.404291 132.298188,214.415423 132.559591,214.426889 L134.109625,214.499652 C134.364825,214.512437 134.618419,214.525548 134.870349,214.538984 L136.361533,214.623454 L137.81013,214.715541 L139.213454,214.815091 C139.673386,214.849502 140.125325,214.885132 140.568824,214.921956 L141.873555,215.035982 C142.086641,215.055575 142.297506,215.07546 142.506093,215.095634 L143.631139,215.209614 L144.608272,215.317838 L145.537337,215.429935 L146.417,215.545703 C146.844259,215.604472 147.252492,215.664541 147.640949,215.725796 L148.391272,215.849856 L149.087526,215.976878 L149.728376,216.106658 C149.93261,216.150356 150.127388,216.194479 150.312488,216.238995 L150.574242,216.303875 C150.997872,216.412167 151.358055,216.521085 151.650231,216.628114 L151.771,216.675 L151.650231,216.721036 C151.29962,216.849471 150.851078,216.980626 150.312488,217.110155 C150.127388,217.154671 149.93261,217.198794 149.728376,217.242492 L149.087526,217.372272 C148.864601,217.415084 148.632443,217.457436 148.391272,217.499294 L147.640949,217.623354 C147.381977,217.664191 147.114217,217.704501 146.837889,217.744249 L145.983427,217.861777 C145.836807,217.881073 145.688101,217.900221 145.537337,217.919215 L144.608272,218.031313 L143.631139,218.139536 C143.464352,218.157239 143.295618,218.174772 143.124964,218.192131 L141.873555,218.313168 C141.447383,218.352354 141.012323,218.390371 140.568824,218.427195 L139.213454,218.534059 L137.81013,218.63361 L136.361533,218.725696 L134.870349,218.810166 L133.339261,218.88687 C133.080903,218.898998 132.820995,218.910796 132.559591,218.922262 L130.973678,218.987031 L129.35457,219.043655 L127.70495,219.091982 L126.027501,219.131862 L124.324909,219.163143 L122.599855,219.185674 L120.855024,219.199304 L119.0931,219.20388 L117.331175,219.199304 L115.586344,219.185674 L113.86129,219.163143 L112.158698,219.131862 L110.48125,219.091982 L108.83163,219.043655 L107.212521,218.987031 L105.626608,218.922262 L104.076574,218.849498 C103.821374,218.836713 103.567781,218.823602 103.31585,218.810166 L101.824666,218.725696 L100.37607,218.63361 L98.9727448,218.534059 L97.6173751,218.427195 C97.1738759,218.390371 96.7388164,218.352354 96.312644,218.313168 L95.0612352,218.192131 L94.0605686,218.085921 C93.8977038,218.067882 93.7368142,218.049678 93.5779273,218.031313 L92.6488624,217.919215 L91.7691993,217.803447 C91.3419404,217.744678 90.9337074,217.684609 90.5452505,217.623354 L89.7949269,217.499294 C89.5537566,217.457436 89.321598,217.415084 89.0986734,217.372272 L88.4578235,217.242492 C88.253589,217.198794 88.0588108,217.154671 87.8737112,217.110155 L87.6119568,217.045275 C87.1883277,216.936983 86.8281443,216.828065 86.5359683,216.721036 L86.414,216.675 L86.5359683,216.628114 C86.8865795,216.499679 87.3351214,216.368524 87.8737112,216.238995 C88.0588108,216.194479 88.253589,216.150356 88.4578235,216.106658 L89.0986734,215.976878 L89.7949269,215.849856 L90.5452505,215.725796 C90.8042218,215.684959 91.0719824,215.64465 91.3483102,215.604901 L92.2027723,215.487373 C92.3493921,215.468077 92.498098,215.448929 92.6488624,215.429935 L93.5779273,215.317838 L94.5550601,215.209614 L95.0612352,215.157019 C95.4691863,215.115522 95.8864716,215.075167 96.312644,215.035982 L97.6173751,214.921956 C97.8391247,214.903544 98.0629843,214.885431 98.2888979,214.867619 L99.6685806,214.764392 L101.094877,214.668555 L102.565102,214.580258 C102.813651,214.566178 103.063919,214.552419 103.31585,214.538984 L104.846938,214.46228 C105.105296,214.450152 105.365205,214.438354 105.626608,214.426889 L107.212521,214.362119 C107.479681,214.351999 107.748224,214.342218 108.018094,214.33278 L109.652793,214.280285 L111.316663,214.236162 L113.007019,214.200563 L114.721177,214.173638 L116.456455,214.155539 C116.747279,214.153266 117.038871,214.151368 117.331175,214.149847 L119.0931,214.14527 Z" id="Oval-Copy-34" fill="#766B83" fill-rule="nonzero"></path>
                <g id="Group-7" transform="translate(63.071542, 0.000000)">
                    <path d="M48.0011448,2.95677375 C52.7975393,4.80427906 54.7712687,8.18550302 53.9223329,13.1004456 C52.6489293,20.4728595 47.9849602,22.0768821 43.5245939,22.0768821 C40.5510164,22.0768821 42.0432,15.7035127 48.0011448,2.95677375 Z" id="Path-90" fill="#038B84"></path>
                    <path d="M28.4600315,42.201068 C16.6750385,42.8729356 1.78714074,36.507481 0.231887106,24.2477489 C-1.32336653,11.9880168 4.94253507,-2.53473175 19.0927663,0.377109992 C33.2429975,3.28895174 40.2253245,-0.619845007 48.6862302,3.27442226 C45.9145894,8.43260808 45.2145436,14.3711762 46.5860928,21.0901265 C48.6434165,31.168552 40.2450245,41.5292003 28.4600315,42.201068 Z" id="Path-85" fill="#00C7BE"></path>
                </g>
                <g id="Group-8" transform="translate(13.816756, 86.759667)">
                    <path d="M72.2341931,19.5713748 C76.388182,15.6617898 75.9494216,4.15628904 63.0578044,0.723433297 C54.463393,-1.5651372 44.6604704,1.57618639 33.6490365,10.147404 C39.3699827,10.3639369 44.5718994,11.5529148 49.2547864,13.7143375 C56.2791169,16.9564716 68.0802041,23.4809598 72.2341931,19.5713748 Z" id="Path-3" fill="#038B84"></path>
                    <path d="M46.7670331,2.35159328 C32.989543,1.28686707 23.1436781,1.28686707 17.2294385,2.35159328 C8.35807898,3.9486826 -7.21822044,22.9185876 3.79790792,22.9185876 C11.1419935,22.9185876 25.4650352,16.0629228 46.7670331,2.35159328 Z" id="Path-4" fill="#00C7BE"></path>
                </g>
                <path d="M135.391919,60.3028526 C119.635127,48.6556534 115.693561,38.8303488 123.567221,30.8269388 C135.377711,18.8218239 160.876406,1.0353917 188.653295,7.46055295 C181.39357,14.5982353 177.005232,21.2274973 175.488281,27.348339 C173.212855,36.5296014 156.066384,41.7560523 148.143584,47.1900875 C142.861718,50.8127777 138.611163,55.1836994 135.391919,60.3028526 Z" id="Path-91" fill="#00C7BE"></path>
                <path d="M188.496184,6.53222842 L188.810406,8.38887747 C158.412255,13.5335105 140.972739,30.8358073 136.322044,60.4489274 L136.04054,62.2746988 L135.760865,64.1554315 C135.714405,64.4734671 135.668021,64.7937926 135.621714,65.1164081 L135.344784,67.0795808 L135.069684,69.0977119 L134.796414,71.1708005 L134.524975,73.2988454 L134.255366,75.4818453 L133.987589,77.7197993 L133.721642,80.0127061 L133.457527,82.3605647 L133.195243,84.7633738 L132.934791,87.2211324 L132.67617,89.7338394 L132.419382,92.3014936 L132.164426,94.9240939 L131.911303,97.6016391 L131.660013,100.334128 L131.410555,103.12156 L131.162931,105.963933 L130.794932,110.330506 L130.551891,113.310228 L130.310685,116.344888 L129.952314,120.999883 L129.715693,124.171882 L129.480907,127.398814 L129.247955,130.680679 L128.901969,135.706473 L128.673606,139.125664 L128.334502,144.357442 L128.110728,147.913952 L127.888791,151.525388 L127.668689,155.191749 L127.34198,160.794272 L126.912798,168.456527 L126.595733,174.347383 L126.282804,180.361804 L125.871997,188.573237 L125.568717,194.875961 L125.269575,201.302238 L124.97457,207.852063 L124.683703,214.525433 L124.492092,219.04298 L122.610696,218.964044 L122.996106,209.975805 L123.191575,205.564086 L123.388889,201.207299 L123.688316,194.775112 L123.991892,188.466515 L124.299618,182.281505 L124.611494,176.220078 L124.821718,172.247781 L125.140514,166.392316 L125.463462,160.660423 L125.790563,155.052099 L126.010939,151.381863 L126.344963,145.979478 L126.569955,142.446532 L126.910905,137.250075 L127.140514,133.854411 L127.371971,130.513657 L127.72262,125.605483 L127.958696,122.402002 L128.19662,119.253427 L128.556972,114.633514 L128.799518,111.622202 L129.043912,108.665793 L129.413971,104.33412 L129.662989,101.514964 L129.913856,98.7507061 L130.166573,96.0413465 L130.42114,93.3868835 L130.677557,90.7873162 L130.935825,88.2426433 L131.195943,85.7528638 L131.457912,83.3179764 L131.721733,80.9379802 L131.987405,78.6128739 L132.254928,76.3426564 L132.524303,74.1273265 L132.79553,71.9668833 L133.068609,69.8613254 L133.34354,67.8106519 C133.389516,67.4734466 133.43557,67.1385281 133.481701,66.8058964 L133.759411,64.8375471 C133.80585,64.5140624 133.852367,64.1928644 133.898961,63.8739531 L134.179451,61.9879256 L134.461794,60.1567779 C139.191463,30.0407903 156.947274,12.1704529 187.564454,6.69437621 L188.496184,6.53222842 Z" id="Path-92" fill="#000000" fill-rule="nonzero"></path>
                <path d="M93.8808332,0.388468451 L94.2362531,2.23767316 C89.437393,3.16002123 87.4231391,7.60203647 88.3036001,15.9788418 L88.3884388,16.7158952 L88.4869955,17.403428 L88.6425249,18.3146297 L88.9159706,19.714204 L89.4335901,22.1199935 L90.1886792,25.443251 L92.6159673,35.7813026 L95.5350157,48.1539614 L96.9913677,54.4171369 L98.1510389,59.474968 L99.4281197,65.1407936 L100.132512,68.3171509 L100.48015,69.8995426 L101.227229,73.3346738 L101.971973,76.8068986 L102.721767,80.3503914 C107.084167,101.102462 110.569328,120.501527 113.06152,138.823241 L113.227214,140.050774 L113.548833,142.49066 L113.857366,144.910215 L114.15274,147.309328 C114.200869,147.707471 114.248446,148.104757 114.29547,148.501185 L114.570969,150.869433 L114.833127,153.216966 C114.875704,153.606489 114.917722,153.995145 114.95918,154.382931 L115.201188,156.699188 C115.240398,157.083485 115.279044,157.466907 115.317125,157.849453 L115.538819,160.134189 C115.574634,160.513219 115.609881,160.891367 115.644558,161.268632 L115.845774,163.5216 C115.910559,164.269043 115.973054,165.012933 116.033246,165.753253 L116.206901,167.963482 C116.234688,168.330062 116.261897,168.695745 116.288525,169.060528 L116.441317,171.238416 L116.58011,173.394607 C116.602072,173.752158 116.623447,174.1088 116.644234,174.464532 L116.76189,176.587972 C116.79875,177.292129 116.833245,177.992625 116.865364,178.689441 L116.954583,180.768831 L117.029472,182.826032 C117.198724,187.941208 117.232958,192.847339 117.127034,197.536743 L117.077176,199.400928 C116.866868,206.193757 116.353588,212.518181 115.521113,218.349965 L115.405614,219.142153 L113.543089,218.864871 C115.093644,208.449656 115.596158,196.389254 115.145335,182.836071 L115.070573,180.791917 L114.981582,178.725485 L114.878433,176.63689 L114.761198,174.526246 C114.740488,174.172641 114.719195,173.818123 114.697319,173.462692 L114.559086,171.31919 L114.406944,169.153924 C114.380432,168.791239 114.353343,168.427652 114.325679,168.063166 L114.152805,165.86547 C114.092888,165.129319 114.030683,164.389588 113.9662,163.646297 L113.765934,161.405761 L113.552078,159.143976 C113.515307,158.765248 113.477972,158.385639 113.440076,158.005151 L113.205969,155.711708 L112.958449,153.397302 L112.697588,151.062047 C112.653004,150.671106 112.607866,150.279302 112.562177,149.886637 L112.281437,147.520323 C112.233549,147.124221 112.185111,146.727262 112.136127,146.329448 L111.835669,143.932333 L111.522153,141.514827 L111.195652,139.077044 C108.793041,121.413906 105.46348,102.737944 101.311443,82.8043616 L100.53233,79.093624 L99.8440166,75.8590983 L99.1575505,72.6738841 L98.2932225,68.7208 L97.4113745,64.7503558 L96.3140686,59.8890581 L94.9552248,53.9695763 L93.482051,47.6459835 L88.4158253,26.1363764 L87.592885,22.5193622 L87.1329,20.3927089 L86.8588016,19.0240955 L86.6639701,17.9302605 L86.5408776,17.1093593 L86.4792783,16.6157819 C85.4043667,7.25487996 87.7422939,1.72594608 93.6035079,0.445381718 L93.8808332,0.388468451 Z" id="Path-93" fill="#000000" fill-rule="nonzero"></path>
                <path d="M105.111143,82.9753052 C98.9181098,64.2861367 90.3632512,54.9415525 79.4465675,54.9415525 C63.071542,54.9415525 44.1935289,56.3412904 32.9847459,64.7800564 C21.775963,73.2188224 -9.13249207,82.9753052 2.62391614,82.9753052 C14.3803244,82.9753052 37.6908162,76.4351271 49.4418291,76.4351271 C57.2758376,76.4351271 75.8322757,78.6151865 105.111143,82.9753052 Z" id="Path-96" fill="#00C7BE"></path>
                <path d="M47.5733876,56.4318696 C73.9254733,59.4631876 93.3557921,68.0948137 105.820059,82.3557009 C116.95601,95.0968069 123.060741,132.49498 124.269037,194.771632 L124.343078,199.00775 C124.431914,204.706168 124.481212,210.605639 124.491071,216.706323 L124.492919,219.003512 L122.609868,219.003512 C122.609868,212.895308 122.570617,206.986219 122.492213,201.276406 L122.426071,197.031412 C121.323862,133.917044 115.269454,96.0285566 104.402228,83.5949096 C92.4112629,69.8755462 73.6918079,61.468487 48.2010059,58.401751 L47.3581966,58.3025845 L47.5733876,56.4318696 Z" id="Path-97" fill="#000000" fill-rule="nonzero"></path>
                <g id="Group-11" transform="translate(122.610603, 66.387184)">
                    <path d="M33.4917415,20.3724828 C39.7231793,7.36440111 52.8471117,0.860360249 72.8635387,0.860360249 C102.888179,0.860360249 125.604687,-3.90845736 143.389397,9.00853705 L128.110224,7.98417391 C115.360322,7.12940166 102.553823,7.82289051 89.9708788,10.0500283 C86.0022719,10.7523086 81.9755115,11.3182967 77.8905977,11.7479925 C63.5264766,13.2589675 71.1757723,16.124679 85.0185635,14.6918233 C94.2470911,13.7365861 85.6222248,19.0939321 59.1439647,30.7638614 L33.4917415,20.3724828 Z" id="Path-112" fill="#00C7BE"></path>
                    <path d="M60.4658284,14.366346 C63.9343362,16.5443384 64.8809073,23.9029003 64.6189867,28.3256457 L61.951252,29.5203786 L59.1439647,30.7638614 L33.4917415,20.3724828 C34.7774425,17.6885912 36.3565568,15.2815765 38.2290845,13.1514387 C47.0219616,13.7094481 54.2216596,10.4454231 60.4658284,14.366346 Z" id="Path" fill="#038B84"></path>
                    <path d="M143.389397,9.00853705 L128.391708,8.00304546 C118.999284,7.37334822 109.576161,7.57179082 100.232303,8.5924655 L125.176012,1.39059846 C131.778388,2.65721591 137.825259,4.96731648 143.389397,9.00853705 Z" id="Path" fill="#038B84"></path>
                    <polygon id="Path-113" fill="#000000" fill-rule="nonzero" points="125.852219 0.435260645 126.272556 2.27079824 123.079518 3.00930372 120.773994 3.55232516 117.818991 4.26186708 115.000049 4.95484163 112.975151 5.46369286 111.667753 5.79774336 110.394387 6.12764516 108.548155 6.6147157 106.778516 7.09244309 105.085482 7.56082218 103.469065 8.01984782 101.929278 8.46951487 100.466133 8.90981819 99.0796434 9.34075263 98.6345166 9.48231458 98.0607429 7.68880823 99.4336537 7.2572049 100.882897 6.8164101 102.408484 6.36641871 103.467963 6.06131268 105.120819 5.59598218 106.850053 5.12144136 108.045314 4.79996142 110.537705 4.14470817 111.834842 3.8109318 113.844234 3.30257579 115.930063 2.78498544 118.83009 2.08049158 121.866055 1.35955979 123.435024 0.992925864"></polygon>
                    <path d="M78.477372,0.5619676 L79.4985312,2.14409128 C30.9568576,33.4746221 5.11811731,82.9252349 1.9700326,150.597273 L1.88158149,152.653518 L0,152.579137 C2.71261016,83.9591478 28.3824276,33.5748163 76.9971747,1.52748592 L78.477372,0.5619676 Z" id="Path-114" fill="#000000" fill-rule="nonzero"></path>
                </g>
                <g id="Group-6" transform="translate(127.644044, 79.646152)">
                    <path d="M10.0787632,30.5121395 C4.13914613,29.7435614 -2.39998403,26.5525003 0.876639059,11.8519563 C4.15326215,-2.84858782 17.3788079,-0.488870995 30.587671,1.42014115 C43.7965341,3.3291533 46.5863085,-2.50027594 53.7977797,3.3291533 C61.0092508,9.15858254 57.3588249,37.84283 42.9085625,35.7143553 C33.2750542,34.2953722 26.1490372,29.3332047 21.5305115,20.8278528 C17.8557574,27.7964294 14.0385079,31.024525 10.0787632,30.5121395 Z" id="Path-98" fill="#038B84"></path>
                    <path d="M26.2675647,0.800704697 L29.0442913,1.19599303 L30.587671,1.42014115 L30.587671,1.42014115 C33.9499271,1.90607152 36.6370951,1.89060204 38.8939421,1.69364973 L39.8355296,1.59906311 L39.8355296,1.59906311 L40.7287064,1.48785031 L40.7287064,1.48785031 L41.9870676,1.30209876 L41.9870676,1.30209876 L44.6182869,0.878261276 L44.6182869,0.878261276 L45.3109138,0.784811972 C48.1554705,0.438527231 50.5198382,0.679412737 53.7977797,3.3291533 C61.0092508,9.15858254 57.3588249,37.84283 42.9085625,35.7143553 C33.2750542,34.2953722 26.1490372,29.3332047 21.5305115,20.8278528 L21.1595559,20.1016092 L20.7736421,19.3595677 L20.7736421,19.3595677 L20.0059653,17.9249416 C14.9065683,8.58057556 10.1761341,3.63237365 5.81466265,3.08033584 C9.99551727,-0.250136824 16.0747993,-0.357211032 22.6840124,0.354680633 L24.1078849,0.518887788 L24.1078849,0.518887788 L25.5449873,0.702907822 C25.7854407,0.734936817 26.0263206,0.767572286 26.2675647,0.800704697 L26.2675647,0.800704697 Z" id="Path" fill="#00C7BE"></path>
                    <path d="M10.8434127,3.75566181 C14.9951919,8.12652207 18.6957513,13.4042641 21.9467422,19.5865788 L22.368235,20.3980974 L20.692788,21.2576082 C17.5565916,15.1442106 13.9921476,9.92935744 10.0011074,5.61073946 L9.4781178,5.0525239 L10.8434127,3.75566181 Z" id="Path-101" fill="#000000" fill-rule="nonzero"></path>
                </g>
                <path d="M59.4071948,89.8082807 C81.4001278,96.5597827 95.8211394,112.170673 102.608832,136.539192 C109.211707,160.244199 113.446245,187.164629 115.314679,217.301139 L115.414247,218.948138 L113.534456,219.058887 C111.727152,188.382643 107.479826,161.044272 100.794837,137.044468 C94.2408146,113.514849 80.4934508,98.4688408 59.4931715,91.8077051 L58.8545793,91.6084189 L59.4071948,89.8082807 Z" id="Path-103" fill="#000000" fill-rule="nonzero"></path>
                <path d="M142.880406,89.9905389 L144.098959,91.4261608 C138.638506,96.0609822 135.197818,104.821305 133.847849,117.728376 L133.717774,119.055256 L132.589183,131.866165 L130.455037,155.245154 L125.903089,204.055856 L124.48877,219.091802 L122.614017,218.915222 L127.080034,171.25318 L129.678015,143.118758 L131.003167,128.46263 L131.781912,119.569344 C132.995518,105.344617 136.571186,95.5617859 142.587395,90.2443491 L142.880406,89.9905389 Z" id="Path-102" fill="#000000" fill-rule="nonzero"></path>
                <path d="M112.867072,135.675645 C123.108374,126.735793 125.985014,119.532042 121.496993,114.064394 C114.474351,105.508878 79.389424,111.344584 77.8617761,134.404974 C76.8433441,149.778567 82.7631094,147.969392 95.6210718,128.977451 C99.5489581,129.74928 102.712315,130.729341 105.111143,131.917634 C107.018317,132.862379 108.755241,134.093799 110.321917,135.611892 L110.32179,135.612022 C111.024722,136.293021 112.132153,136.322007 112.869747,135.678713 Z" id="Path-108" fill="#038B84"></path>
                <path d="M78.8885981,129.053335 C84.9812935,110.480514 115.053061,106.213906 121.496993,114.064394 C125.982569,119.529064 123.111506,126.727944 112.883804,135.661035 C112.201023,136.257391 111.200837,136.283298 110.491429,135.754095 L110.30562,135.596016 C108.743161,134.085239 107.011686,132.859095 105.111143,131.917634 C102.712315,130.729341 99.5489581,129.74928 95.6210718,128.977451 L95.2023266,129.59348 L95.2023266,129.59348 C89.8196084,128.060205 84.7209892,127.80218 79.9072582,128.818539 L78.8885981,129.053335 Z" id="Path" fill="#00C7BE"></path>
                <path d="M80.2765355,165.937126 C99.9908822,172.986697 111.683546,188.270679 115.298837,211.653917 L115.405919,212.364979 L113.542784,212.638126 C110.186835,189.74717 99.0968032,174.885822 80.2170001,167.918927 L79.6425004,167.710225 L80.2765355,165.937126 Z" id="Path-115" fill="#000000" fill-rule="nonzero"></path>
                <path d="M83.7156275,128.51845 C89.4214152,128.320572 93.7620431,128.540795 96.7375114,129.179118" id="Path-109" stroke="#284583" stroke-width="1.88305108"></path>
                <path d="M90.2265695,171.328368 C83.6954679,162.399021 73.9755307,158.622768 61.066758,159.999607 C41.7035989,162.064865 21.6200843,179.507538 41.3434211,178.885184 C61.066758,178.26283 63.2042932,170.738833 72.6601613,169.499737 C78.9640734,168.673672 84.8195428,169.283216 90.2265695,171.328368 Z" id="Path-110" fill="#00C7BE"></path>
                <path d="M123.551394,215.095497 C125.040129,204.570399 128.885626,199.307851 135.087885,199.307851" id="Path-116" stroke="#133371" stroke-width="1.88305108"></path>
                <path d="M133.520538,199.003501 C137.815804,195.730875 142.653255,194.365207 148.032891,194.906495 C156.102344,195.718428 161.236529,205.91259 167.081014,206.626382 C160.95415,209.15314 155.146483,209.953583 149.658013,209.027712 C145.889822,208.392041 140.510664,205.050637 133.520538,199.003501 Z" id="Path-111" fill="#00C7BE"></path>
            </g>
        </g>
    </g>
</svg>