<svg xmlns="http://www.w3.org/2000/svg" viewBox="0 0 1024 1024"><defs><style>.cls-1{isolation:isolate;}.cls-2{fill:#7827e7;}.cls-3{fill:#00c7be;mix-blend-mode:multiply;}.cls-4{fill:#ea7ffc;}</style></defs><g class="cls-1"><g id="Layer_1" data-name="Layer 1"><path class="cls-2" d="M821.05,617.61A202.24,202.24,0,0,1,618.8,819.86H261.48V623H635a21.56,21.56,0,0,0,0-43.12H261.48V415.33H618.8A202.23,202.23,0,0,1,821.05,617.61Z"/><path class="cls-3" d="M782,393.75a186,186,0,0,1-186.07,186.1H261.48V415.33h334.4a21.55,21.55,0,0,0,21.55-21.55v0a21.55,21.55,0,0,0-21.55-21.55H261.48V207.68h334.4C698.64,207.68,782,291,782,393.75Z"/><polygon class="cls-4" points="531.12 851.89 635.8 915.58 635.8 622.97 426.36 622.97 426.36 915.58 531.12 851.89"/></g></g></svg>